inDegrees=no
num_controls=7
num_derivatives=13
num_iterations=146
num_multipliers=7
num_parameters=0
num_slacks=7
num_states=26
objective=5.967416
objective_accelerations=0.546395
objective_balance=0.059096
objective_effort=0.478458
objective_height=4.789661
objective_ligament=0.093805
solver_duration=1532.994887
status=Solve_Succeeded
success=true
DataType=double
version=3
OpenSimVersion=4.4-2022-07-23-0e9fedc
endheader
time	/jointset/ground_pelvis/pelvis_tilt/value	/jointset/ground_pelvis/pelvis_tx/value	/jointset/ground_pelvis/pelvis_ty/value	/jointset/hip_l/hip_flexion_l/value	/jointset/hip_l/hip_adduction_l/value	/jointset/hip_l/hip_rotation_l/value	/jointset/back/lumbar_extension/value	/jointset/patellofemoral_l/patellar_flexion_l/value	/jointset/knee_l/knee_flexion_l/value	/jointset/knee_l/knee_adduction_l/value	/jointset/knee_l/knee_rotation_l/value	/jointset/ankle_l/ankle_angle_l/value	/jointset/subtalar_l/subtalar_angle_l/value	/jointset/ground_pelvis/pelvis_tilt/speed	/jointset/ground_pelvis/pelvis_tx/speed	/jointset/ground_pelvis/pelvis_ty/speed	/jointset/hip_l/hip_flexion_l/speed	/jointset/hip_l/hip_adduction_l/speed	/jointset/hip_l/hip_rotation_l/speed	/jointset/back/lumbar_extension/speed	/jointset/patellofemoral_l/patellar_flexion_l/speed	/jointset/knee_l/knee_flexion_l/speed	/jointset/knee_l/knee_adduction_l/speed	/jointset/knee_l/knee_rotation_l/speed	/jointset/ankle_l/ankle_angle_l/speed	/jointset/subtalar_l/subtalar_angle_l/speed	/forceset/tau_hip_flexion_l	/forceset/tau_hip_adduction_l	/forceset/tau_hip_rotation_l	/forceset/tau_knee_flexion_l	/forceset/tau_ankle_angle_l	/forceset/tau_subtalar_angle_l	/forceset/tau_lumbar_extension	lambda_cid13_p0	lambda_cid13_p1	lambda_cid13_p2	lambda_cid13_p3	lambda_cid13_p4	lambda_cid13_p5	lambda_cid14_p0	/jointset/ground_pelvis/pelvis_tilt/accel	/jointset/ground_pelvis/pelvis_tx/accel	/jointset/ground_pelvis/pelvis_ty/accel	/jointset/hip_l/hip_flexion_l/accel	/jointset/hip_l/hip_adduction_l/accel	/jointset/hip_l/hip_rotation_l/accel	/jointset/back/lumbar_extension/accel	/jointset/patellofemoral_l/patellar_flexion_l/accel	/jointset/knee_l/knee_flexion_l/accel	/jointset/knee_l/knee_adduction_l/accel	/jointset/knee_l/knee_rotation_l/accel	/jointset/ankle_l/ankle_angle_l/accel	/jointset/subtalar_l/subtalar_angle_l/accel	gamma_cid13_p0	gamma_cid13_p1	gamma_cid13_p2	gamma_cid13_p3	gamma_cid13_p4	gamma_cid13_p5	gamma_cid14_p0
1	-0.09232495715121296	-0.0380671039272984	0.690773468702277	1.272283540834866	-0.3309725445614718	0.06955185091449194	-0.9599308113577509	1.402665963297874	1.402665963298109	-0.06404462838377219	-0.1745302296280102	0.3220813538561671	0.08053791740975769	0.1080657167416794	0.02657031841062155	0.06779489445790257	-0.3000134421520378	-0.007073451059513437	-0.06492958620247435	-0.0005246679457643877	-0.157742158092952	-0.1577421580929629	-0.001465297054631884	-2.567053516228196e-05	0.02540384009419917	0.003251227594871676	-0.3643567744060142	0.03049009448459783	0.0009861155723849095	-0.3691973945862891	-0.01245148200014439	0.02578573520630651	0.4214387107340994	-54.85944194335811	-0.6437354114312295	-1.436256977277515	17.40933835591574	-798.2350317949952	-66.82158523604437	-0.04137547940554363	0.7866247945450054	-0.0602923288095686	1.504820774316333	-4.749116704344157	-0.08066111389913737	-1.65615845725591	0.07996051137104204	-5.011104643035336	-5.011104643035433	-0.3387983220188252	-0.01744865722328695	-1.409390228934649	-0.7496832574867854	-9.565828494496252e-09	2.398691429319966e-08	5.878904715356842e-08	8.079964390219339e-09	-2.473473051623459e-08	1.258617470478328e-07	-1.608966816283082e-08
1.01	-0.09120540856766912	-0.0378043057083734	0.6915264682404849	1.269046755182837	-0.3310465715760316	0.06881894338966459	-0.959931041670124	1.400838335208779	1.400838335208783	-0.06407432541777285	-0.1745303415843156	0.322265137581177	0.08053410007376127	0.1158377142501189	0.02600099844980851	0.08279663023709083	-0.3473311356498019	-0.007723899467591824	-0.08164592170446308	0.0005325760427336611	-0.2077816640130671	-0.2077816640130699	-0.004473250615041016	2.543983316114647e-06	0.0113492782501158	-0.004005027962799372	-0.3638592543403714	0.03066929778385712	0.00091358822288862	-0.3689640736882649	-0.01254517562775167	0.0259340410538188	0.4214428290060456	-54.86536941163666	-0.7238620252264379	-1.40434396842425	17.18409484169138	-798.1552839044967	-66.90219781942848	-0.04140677384023852	0.7715425171890059	-0.05349741659554889	1.496586118885416	-4.721215540501889	-0.05603573322349092	-1.678488810441978	0.1267019837116478	-5.000099732490439	-5.000099732489407	-0.2816760711037372	0.01286791465036006	-1.404033802608549	-0.7121594385216717	-1.744680243786215e-08	1.582585979385404e-08	8.819995377800305e-08	1.716734360727681e-08	-3.20207414691746e-08	1.421702165338369e-07	-2.232248561438218e-08
1.02	-0.09000832895141045	-0.03754684980643262	0.6924292323643157	1.265337168622023	-0.331126862880502	0.06791904896708072	-0.959919080418103	1.398510366827285	1.398510366827185	-0.06413407842696743	-0.1745301891139015	0.3223082667596538	0.08045800763546465	0.1235719232863092	0.02550185501377387	0.09774781158261188	-0.3945736238680212	-0.008326309034123633	-0.09832696575732069	0.001913645676092072	-0.2578102165728228	-0.2578102165728189	-0.007476492097526676	2.721483246765833e-05	-0.002727069212496737	-0.01120379286504863	-0.3633617342755381	0.0308485010830486	0.0008410608733042915	-0.3687307527903085	-0.01263886925523469	0.02608234690129538	0.4214469472772973	-54.88358351551441	-0.8004112692557322	-1.374630443571575	17.02039463603944	-798.2341375529028	-66.95923584545974	-0.04143923206888292	0.7790671000952951	-0.04625702385389874	1.494709887582892	-4.734075648435168	-0.07105334558983378	-1.649100167429692	0.1447256403430477	-5.008913970963481	-5.008913970963845	-0.3378559064341343	-0.01815739108866773	-1.413747352640499	-0.7381851264024407	-2.363010282792074e-08	4.51967398419399e-09	1.177365613265411e-07	2.150636139767892e-08	-3.784710347079988e-08	1.544426383237385e-07	-2.871748486412078e-08
1.03	-0.08873461210666765	-0.03729383339828481	0.6934811621335099	1.261156005190796	-0.3312129258546611	0.0668526182171419	-0.9598899739651073	1.395682359865201	1.395682359865244	-0.06422384698893314	-0.1745297918646477	0.3222107841569891	0.080310374964075	0.131113623239134	0.02513346548405176	0.1126205519525523	-0.4416002514706099	-0.008878804567996949	-0.1149472288946705	0.00413354453422179	-0.3077708228391477	-0.3077708228391569	-0.01047627670394057	4.899359036908044e-05	-0.01674724243295919	-0.01829979245766697	-0.3638557154558584	0.03111174103382181	0.0007282654198284647	-0.3680070425770887	-0.01277739570510958	0.02633207514998987	0.4226997762999176	-54.92124935945878	-0.9343636170696802	-1.316619712478821	16.46455631434841	-798.77896271567	-67.02736794691988	-0.04147923281081185	0.7330456917156718	-0.02731890188542383	1.4809087992168	-4.678138350788545	-0.04623935929548333	-1.666724321867794	0.2945069496270011	-4.986573942089124	-4.986573942090898	-0.2809167947169987	0.01189291755946077	-1.392823222110181	-0.6918811009533077	-2.979608001845578e-08	-6.818605002101932e-09	1.4727445153757e-07	2.579692652046208e-08	-4.365857109537091e-08	1.666738759534758e-07	-3.51141390301674e-08
1.04	-0.08738721341262704	-0.03704353868230519	0.6946812898439055	1.256506339076575	-0.3313042921245703	0.06562033784883679	-0.9598318915353163	1.392355358842929	1.39235535884314	-0.06434358880835329	-0.1745292673461613	0.3219737656390478	0.08009246755170618	0.1383082931455162	0.02495751658013603	0.1273873998230719	-0.4882741604579353	-0.009386968182245619	-0.1314968894312303	0.007708841035490582	-0.3576090286103592	-0.3576090286103782	-0.01347114358923849	5.266868146013852e-05	-0.03063425226786322	-0.02525874106076102	-0.3643496966363618	0.03137498098457034	0.0006154699663323211	-0.3672833323638862	-0.01291592215495982	0.02658180339866164	0.4239526053223819	-54.97140370224085	-1.064664916625879	-1.260864006481451	15.96875645195693	-799.4857694098558	-67.07246727397569	-0.04151935835412818	0.7096610908068443	-0.007768898692620105	1.473531387698716	-4.663531925382522	-0.06218696166500781	-1.634979647271781	0.41580516897065	-4.984433871940798	-4.984433871940481	-0.3368723622109834	-0.02177812445095695	-1.387114675528819	-0.7107749284977243	-3.409671686941694e-08	-1.982519109724685e-08	1.745824192348264e-07	2.653826259068781e-08	-4.932330448309145e-08	1.700657964829029e-07	-4.047702802357412e-08
1.05	-0.08596936545579068	-0.03679407672441559	0.6960284976791596	1.251391649390953	-0.3314004835630077	0.06422301513758129	-0.9597318931378304	1.388530697230372	1.388530697230638	-0.06449327790532261	-0.174528782304648	0.321598472080223	0.07980568821900931	0.1452253298281961	0.02496337173652593	0.1420304465552732	-0.5346077503129815	-0.009839190635704969	-0.1479498564973869	0.01245791403431965	-0.4072920331574588	-0.4072920331574698	-0.01646256529875718	4.420166414518739e-05	-0.04440914279556289	-0.03206922155372767	-0.3641615311250105	0.03160550291413781	0.0004703160556941706	-0.3663322562224959	-0.01283354461142031	0.0268895527263162	0.4244998153573395	-54.9035558312073	-1.25073645224783	-1.184896744352977	15.4543787357318	-799.4705642622347	-67.17522954817463	-0.04157385657474608	0.6773266491441792	0.00904267370560864	1.456122161243664	-4.60987312291205	-0.03494160541620628	-1.647823568063776	0.5295197005711595	-4.955535419164358	-4.955535419163381	-0.2796854860089684	0.009642370871758359	-1.370382062686244	-0.6620173842143963	-3.833906183476642e-08	-3.288391178954329e-08	2.018207018535274e-07	2.716868525302114e-08	-5.498345242591042e-08	1.731814883529453e-07	-4.580761185533584e-08
1.06	-0.08448342679369185	-0.03654370022478193	0.6975214221507877	1.245815303685364	-0.3315008375696182	0.0626616890893069	-0.959579391743283	1.38421014523773	1.384210145238017	-0.06467276290152854	-0.1745283772610211	0.3210858884518622	0.07945163752647859	0.1519264341966991	0.02514042492894691	0.1565307270979741	-0.5806053644618749	-0.0102194818183559	-0.1642975568345919	0.01820944044241297	-0.4567871046273501	-0.4567871046273554	-0.01943032343574528	3.666909656674874e-05	-0.05809226617509208	-0.03871301302742849	-0.3639733656134612	0.03183602484371514	0.0003251621450729	-0.3653811800810901	-0.01275116706791204	0.02719730205397003	0.425047025392471	-54.84832229844308	-1.433083571055682	-1.111254850980517	14.99788975331755	-799.6193989447901	-67.25630758961488	-0.04162744774414414	0.6664746279714636	0.02647070851359284	1.44497814979862	-4.596336784152007	-0.04780070750339512	-1.613926301481522	0.6162958508233818	-4.946847256499118	-4.94684725649927	-0.3321396477048995	-0.02159123450381534	-1.368761245894744	-0.6774371246446661	-4.314032276684579e-08	-4.729775391259125e-08	2.262840197738345e-07	2.851271063146336e-08	-6.063200639743108e-08	1.739792109969211e-07	-5.087354402077826e-08
1.07	-0.08293154447269295	-0.03629067751442807	0.6991585749817565	1.239780756144869	-0.3316046168077822	0.06093751529163824	-0.959364355999097	1.379395670285896	1.379395670286028	-0.06488186125698724	-0.1745280452821094	0.3204369209515435	0.07903201573462375	0.1584140796934653	0.0254946668422562	0.1708699655102811	-0.6262378391715614	-0.01052183390644709	-0.1805150250911482	0.0249672285988455	-0.506068133852592	-0.5060681338525898	-0.02238455923772236	2.979829270338511e-05	-0.07168682659864856	-0.04517906380328943	-0.3635407547093478	0.032070621402557	0.0001478657250741161	-0.3641475333661556	-0.01254474670539113	0.02757353257975617	0.4253911894887311	-54.72223654130481	-1.668790156738657	-1.016298510663324	14.44729587921625	-799.3799730626747	-67.38483645728797	-0.04169253310298834	0.634513339586116	0.04448938622659999	1.42390231326384	-4.536762535045672	-0.01929964609220028	-1.622377548111335	0.7309483284520579	-4.912756715983445	-4.912756715982221	-0.2763786795279773	0.009828878185815477	-1.352647162436954	-0.6263662841021619	-4.797131327162356e-08	-6.178367696280686e-08	2.505997331889079e-07	2.989469360118798e-08	-6.627994366835076e-08	1.746536374054677e-07	-5.592539896992709e-08
1.08	-0.08131586493091059	-0.03603319469424376	0.7009382213221109	1.233291871913164	-0.3317109890041508	0.05905182271932857	-0.9590766567672592	1.374089579849721	1.374089579849683	-0.06512036459708345	-0.1745277692349036	0.3196524391026192	0.07854869798900083	0.1646858783524996	0.02603244689503877	0.1850294289752225	-0.6714727027079969	-0.0107380734597454	-0.1966013117624509	0.03274213797121354	-0.5551102014957034	-0.5551102014956926	-0.02531132036305709	2.548274937498468e-05	-0.08519513589624036	-0.05145220378096659	-0.3631081438051637	0.03230521796139876	-2.943069489007606e-05	-0.3629138866512164	-0.01233832634288285	0.02794976310553595	0.4257353535850547	-54.60895821309401	-1.900631451414532	-0.9238123039006205	13.95246950741707	-799.3073071953181	-67.4931393407509	-0.04175551918879734	0.6233052604251169	0.06317833640822704	1.409023160325487	-4.516814549501788	-0.03057820054484401	-1.587689984430787	0.8197200940104351	-4.899054940073047	-4.89905494007296	-0.326644712376446	-0.02108018239688234	-1.351511020701848	-0.6388549650079607	-5.241417298972661e-08	-7.67242967451674e-08	2.708925580346296e-07	3.07161929664637e-08	-7.13507074447394e-08	1.713728402752497e-07	-6.022585701051505e-08
